<mxfile host="app.diagrams.net" agent="Mozilla/5.0 (Windows NT 10.0; Win64; x64) AppleWebKit/537.36 (KHTML, like Gecko) Chrome/128.0.0.0 Safari/537.36" version="24.7.8">
  <diagram name="Page-1" id="jyXBjkFiWGU-hhvnp-s5">
    <mxGraphModel dx="326" dy="565" grid="1" gridSize="10" guides="1" tooltips="1" connect="1" arrows="1" fold="1" page="1" pageScale="1" pageWidth="827" pageHeight="1169" math="0" shadow="0">
      <root>
        <mxCell id="0" />
        <mxCell id="1" parent="0" />
        <mxCell id="59rNZpxkY8h7nBvg0poe-11" style="edgeStyle=orthogonalEdgeStyle;rounded=0;orthogonalLoop=1;jettySize=auto;html=1;startArrow=classic;startFill=1;shape=link;fillColor=#f5f5f5;strokeColor=#666666;" edge="1" parent="1" source="59rNZpxkY8h7nBvg0poe-1" target="59rNZpxkY8h7nBvg0poe-2">
          <mxGeometry relative="1" as="geometry" />
        </mxCell>
        <mxCell id="59rNZpxkY8h7nBvg0poe-12" value="1. Send Events" style="edgeLabel;html=1;align=center;verticalAlign=middle;resizable=0;points=[];" vertex="1" connectable="0" parent="59rNZpxkY8h7nBvg0poe-11">
          <mxGeometry x="-0.1764" y="2" relative="1" as="geometry">
            <mxPoint as="offset" />
          </mxGeometry>
        </mxCell>
        <mxCell id="59rNZpxkY8h7nBvg0poe-1" value="Windows 10 Client&lt;div&gt;&lt;br&gt;&lt;/div&gt;" style="fontColor=#0066CC;verticalAlign=top;verticalLabelPosition=bottom;labelPosition=center;align=center;html=1;outlineConnect=0;fillColor=#CCCCCC;strokeColor=#6881B3;gradientColor=none;gradientDirection=north;strokeWidth=2;shape=mxgraph.networks.pc;" vertex="1" parent="1">
          <mxGeometry x="410" y="490" width="100" height="70" as="geometry" />
        </mxCell>
        <mxCell id="59rNZpxkY8h7nBvg0poe-2" value="Router" style="sketch=0;points=[[0.5,0,0],[1,0.5,0],[0.5,1,0],[0,0.5,0],[0.145,0.145,0],[0.8555,0.145,0],[0.855,0.8555,0],[0.145,0.855,0]];verticalLabelPosition=bottom;html=1;verticalAlign=top;aspect=fixed;align=center;pointerEvents=1;shape=mxgraph.cisco19.rect;prIcon=router;fillColor=#FAFAFA;strokeColor=#005073;" vertex="1" parent="1">
          <mxGeometry x="435" y="320" width="50" height="50" as="geometry" />
        </mxCell>
        <mxCell id="59rNZpxkY8h7nBvg0poe-15" style="edgeStyle=orthogonalEdgeStyle;rounded=0;orthogonalLoop=1;jettySize=auto;html=1;shape=link;" edge="1" parent="1" source="59rNZpxkY8h7nBvg0poe-3" target="59rNZpxkY8h7nBvg0poe-5">
          <mxGeometry relative="1" as="geometry" />
        </mxCell>
        <mxCell id="59rNZpxkY8h7nBvg0poe-17" value="2. Receive Events" style="edgeLabel;html=1;align=center;verticalAlign=middle;resizable=0;points=[];" vertex="1" connectable="0" parent="59rNZpxkY8h7nBvg0poe-15">
          <mxGeometry x="-0.095" relative="1" as="geometry">
            <mxPoint as="offset" />
          </mxGeometry>
        </mxCell>
        <mxCell id="59rNZpxkY8h7nBvg0poe-26" style="rounded=0;orthogonalLoop=1;jettySize=auto;html=1;shape=link;fillColor=#ffe6cc;strokeColor=#d79b00;" edge="1" parent="1" source="59rNZpxkY8h7nBvg0poe-3" target="59rNZpxkY8h7nBvg0poe-10">
          <mxGeometry relative="1" as="geometry">
            <mxPoint x="559.9999999999998" y="410" as="targetPoint" />
            <Array as="points">
              <mxPoint x="620" y="300" />
            </Array>
          </mxGeometry>
        </mxCell>
        <mxCell id="59rNZpxkY8h7nBvg0poe-27" value="7. Send &amp;amp; Receive Email" style="edgeLabel;html=1;align=center;verticalAlign=middle;resizable=0;points=[];" vertex="1" connectable="0" parent="59rNZpxkY8h7nBvg0poe-26">
          <mxGeometry x="-0.0942" y="-3" relative="1" as="geometry">
            <mxPoint as="offset" />
          </mxGeometry>
        </mxCell>
        <mxCell id="59rNZpxkY8h7nBvg0poe-3" value="Internet" style="image;aspect=fixed;perimeter=ellipsePerimeter;html=1;align=center;shadow=0;dashed=0;spacingTop=3;image=img/lib/active_directory/internet_cloud.svg;" vertex="1" parent="1">
          <mxGeometry x="440" y="200" width="50" height="31.5" as="geometry" />
        </mxCell>
        <mxCell id="59rNZpxkY8h7nBvg0poe-4" value="TheHive" style="image;aspect=fixed;perimeter=ellipsePerimeter;html=1;align=center;shadow=0;dashed=0;spacingTop=3;image=img/lib/active_directory/internet_cloud.svg;" vertex="1" parent="1">
          <mxGeometry x="610" y="200" width="50" height="31.5" as="geometry" />
        </mxCell>
        <mxCell id="59rNZpxkY8h7nBvg0poe-18" style="rounded=0;orthogonalLoop=1;jettySize=auto;html=1;entryX=0;entryY=0.5;entryDx=0;entryDy=0;shape=link;fillColor=#dae8fc;strokeColor=#6c8ebf;" edge="1" parent="1" source="59rNZpxkY8h7nBvg0poe-5" target="59rNZpxkY8h7nBvg0poe-8">
          <mxGeometry relative="1" as="geometry" />
        </mxCell>
        <mxCell id="59rNZpxkY8h7nBvg0poe-21" value="3. Send Alerts" style="edgeLabel;html=1;align=center;verticalAlign=middle;resizable=0;points=[];" vertex="1" connectable="0" parent="59rNZpxkY8h7nBvg0poe-18">
          <mxGeometry x="0.1774" y="-4" relative="1" as="geometry">
            <mxPoint as="offset" />
          </mxGeometry>
        </mxCell>
        <mxCell id="59rNZpxkY8h7nBvg0poe-34" style="rounded=0;orthogonalLoop=1;jettySize=auto;html=1;shape=link;fillColor=#f8cecc;strokeColor=#b85450;" edge="1" parent="1" source="59rNZpxkY8h7nBvg0poe-5" target="59rNZpxkY8h7nBvg0poe-1">
          <mxGeometry relative="1" as="geometry">
            <Array as="points">
              <mxPoint x="275" y="525" />
            </Array>
          </mxGeometry>
        </mxCell>
        <mxCell id="59rNZpxkY8h7nBvg0poe-35" value="8. Perform Responsive Action" style="edgeLabel;html=1;align=center;verticalAlign=middle;resizable=0;points=[];" vertex="1" connectable="0" parent="59rNZpxkY8h7nBvg0poe-34">
          <mxGeometry x="-0.4382" y="-2" relative="1" as="geometry">
            <mxPoint as="offset" />
          </mxGeometry>
        </mxCell>
        <mxCell id="59rNZpxkY8h7nBvg0poe-5" value="Wazuh Manager" style="image;aspect=fixed;perimeter=ellipsePerimeter;html=1;align=center;shadow=0;dashed=0;spacingTop=3;image=img/lib/active_directory/internet_cloud.svg;" vertex="1" parent="1">
          <mxGeometry x="250" y="200" width="50" height="31.5" as="geometry" />
        </mxCell>
        <mxCell id="59rNZpxkY8h7nBvg0poe-22" style="rounded=0;orthogonalLoop=1;jettySize=auto;html=1;entryX=0.5;entryY=0;entryDx=0;entryDy=0;shape=link;fillColor=#dae8fc;strokeColor=#6c8ebf;" edge="1" parent="1" source="59rNZpxkY8h7nBvg0poe-8" target="59rNZpxkY8h7nBvg0poe-4">
          <mxGeometry relative="1" as="geometry" />
        </mxCell>
        <mxCell id="59rNZpxkY8h7nBvg0poe-23" value="5. Send Alerts" style="edgeLabel;html=1;align=center;verticalAlign=middle;resizable=0;points=[];" vertex="1" connectable="0" parent="59rNZpxkY8h7nBvg0poe-22">
          <mxGeometry x="0.312" y="4" relative="1" as="geometry">
            <mxPoint as="offset" />
          </mxGeometry>
        </mxCell>
        <mxCell id="59rNZpxkY8h7nBvg0poe-24" style="edgeStyle=orthogonalEdgeStyle;rounded=0;orthogonalLoop=1;jettySize=auto;html=1;shape=link;fillColor=#ffe6cc;strokeColor=#d79b00;" edge="1" parent="1" source="59rNZpxkY8h7nBvg0poe-8" target="59rNZpxkY8h7nBvg0poe-3">
          <mxGeometry relative="1" as="geometry">
            <Array as="points">
              <mxPoint x="500" y="76" />
              <mxPoint x="500" y="216" />
            </Array>
          </mxGeometry>
        </mxCell>
        <mxCell id="59rNZpxkY8h7nBvg0poe-25" value="6. Send Email" style="edgeLabel;html=1;align=center;verticalAlign=middle;resizable=0;points=[];" vertex="1" connectable="0" parent="59rNZpxkY8h7nBvg0poe-24">
          <mxGeometry x="0.3951" y="3" relative="1" as="geometry">
            <mxPoint as="offset" />
          </mxGeometry>
        </mxCell>
        <mxCell id="59rNZpxkY8h7nBvg0poe-8" value="Shuffle" style="image;aspect=fixed;perimeter=ellipsePerimeter;html=1;align=center;shadow=0;dashed=0;spacingTop=3;image=img/lib/active_directory/internet_cloud.svg;" vertex="1" parent="1">
          <mxGeometry x="435" y="60" width="50" height="31.5" as="geometry" />
        </mxCell>
        <mxCell id="59rNZpxkY8h7nBvg0poe-28" style="rounded=0;orthogonalLoop=1;jettySize=auto;html=1;entryX=0.75;entryY=1;entryDx=0;entryDy=0;shape=link;fillColor=#f8cecc;strokeColor=#b85450;" edge="1" parent="1" source="59rNZpxkY8h7nBvg0poe-10" target="59rNZpxkY8h7nBvg0poe-3">
          <mxGeometry relative="1" as="geometry">
            <Array as="points">
              <mxPoint x="520" y="320" />
            </Array>
          </mxGeometry>
        </mxCell>
        <mxCell id="59rNZpxkY8h7nBvg0poe-29" value="8. Send Response Action" style="edgeLabel;html=1;align=center;verticalAlign=middle;resizable=0;points=[];" vertex="1" connectable="0" parent="59rNZpxkY8h7nBvg0poe-28">
          <mxGeometry x="-0.4526" y="-1" relative="1" as="geometry">
            <mxPoint as="offset" />
          </mxGeometry>
        </mxCell>
        <mxCell id="59rNZpxkY8h7nBvg0poe-10" value="&lt;div&gt;SOC Analyst&lt;/div&gt;" style="fontColor=#0066CC;verticalAlign=top;verticalLabelPosition=bottom;labelPosition=center;align=center;html=1;outlineConnect=0;fillColor=#CCCCCC;strokeColor=#6881B3;gradientColor=none;gradientDirection=north;strokeWidth=2;shape=mxgraph.networks.pc;" vertex="1" parent="1">
          <mxGeometry x="610" y="370" width="100" height="70" as="geometry" />
        </mxCell>
        <mxCell id="59rNZpxkY8h7nBvg0poe-13" style="edgeStyle=orthogonalEdgeStyle;rounded=0;orthogonalLoop=1;jettySize=auto;html=1;entryX=0.386;entryY=1.055;entryDx=0;entryDy=0;entryPerimeter=0;shape=link;strokeColor=#666666;fillColor=#f5f5f5;" edge="1" parent="1" source="59rNZpxkY8h7nBvg0poe-2" target="59rNZpxkY8h7nBvg0poe-3">
          <mxGeometry relative="1" as="geometry" />
        </mxCell>
        <mxCell id="59rNZpxkY8h7nBvg0poe-19" style="edgeStyle=orthogonalEdgeStyle;rounded=0;orthogonalLoop=1;jettySize=auto;html=1;entryX=0.413;entryY=0.092;entryDx=0;entryDy=0;entryPerimeter=0;shape=link;fillColor=#d5e8d4;strokeColor=#82b366;" edge="1" parent="1" source="59rNZpxkY8h7nBvg0poe-8" target="59rNZpxkY8h7nBvg0poe-3">
          <mxGeometry relative="1" as="geometry" />
        </mxCell>
        <mxCell id="59rNZpxkY8h7nBvg0poe-20" value="4. Enrich IOCs" style="edgeLabel;html=1;align=center;verticalAlign=middle;resizable=0;points=[];" vertex="1" connectable="0" parent="59rNZpxkY8h7nBvg0poe-19">
          <mxGeometry x="0.0519" y="1" relative="1" as="geometry">
            <mxPoint as="offset" />
          </mxGeometry>
        </mxCell>
        <mxCell id="59rNZpxkY8h7nBvg0poe-31" style="rounded=0;orthogonalLoop=1;jettySize=auto;html=1;shape=link;fillColor=#f8cecc;strokeColor=#b85450;" edge="1" parent="1" source="59rNZpxkY8h7nBvg0poe-3">
          <mxGeometry relative="1" as="geometry">
            <mxPoint x="440" y="90" as="targetPoint" />
            <Array as="points">
              <mxPoint x="400" y="150" />
            </Array>
          </mxGeometry>
        </mxCell>
        <mxCell id="59rNZpxkY8h7nBvg0poe-32" style="edgeStyle=orthogonalEdgeStyle;rounded=0;orthogonalLoop=1;jettySize=auto;html=1;entryX=0.289;entryY=-0.113;entryDx=0;entryDy=0;entryPerimeter=0;shape=link;fillColor=#f8cecc;strokeColor=#b85450;" edge="1" parent="1" source="59rNZpxkY8h7nBvg0poe-8" target="59rNZpxkY8h7nBvg0poe-5">
          <mxGeometry relative="1" as="geometry" />
        </mxCell>
        <mxCell id="59rNZpxkY8h7nBvg0poe-33" value="8. Send Response Action" style="edgeLabel;html=1;align=center;verticalAlign=middle;resizable=0;points=[];" vertex="1" connectable="0" parent="59rNZpxkY8h7nBvg0poe-32">
          <mxGeometry x="-0.2288" y="-3" relative="1" as="geometry">
            <mxPoint x="-62" y="67" as="offset" />
          </mxGeometry>
        </mxCell>
      </root>
    </mxGraphModel>
  </diagram>
</mxfile>
